<svg width="90" height="90" viewBox="0 0 90 90" fill="none" xmlns="http://www.w3.org/2000/svg">
<circle cx="45" cy="45" r="45" fill="#D9D9D9"/>
<path d="M33.3333 74.1667C29.2986 74.1667 25.8594 72.7448 23.0156 69.9011C20.1719 67.0573 18.75 63.6181 18.75 59.5834C18.75 55.5486 20.1719 52.1094 23.0156 49.2656C25.8594 46.4219 29.2986 45 33.3333 45V50.8334C30.9028 50.8334 28.8368 51.684 27.1354 53.3854C25.434 55.0868 24.5833 57.1528 24.5833 59.5834C24.5833 62.0139 25.434 64.0799 27.1354 65.7813C28.8368 67.4827 30.9028 68.3334 33.3333 68.3334C35.7639 68.3334 37.8299 67.4827 39.5313 65.7813C41.2326 64.0799 42.0833 62.0139 42.0833 59.5834H47.9167C47.9167 63.6181 46.4948 67.0573 43.651 69.9011C40.8073 72.7448 37.3681 74.1667 33.3333 74.1667ZM59.5833 71.25V56.6667H42.0833C39.9444 56.6667 38.2917 55.7552 37.125 53.9323C35.9583 52.1094 35.8125 50.2014 36.6875 48.2084L42.0833 36.25H35.4479L33.6979 40.7709L28.0833 39.1667L30.125 33.9167C30.5625 32.7986 31.2795 31.9358 32.276 31.3281C33.2726 30.7205 34.3542 30.4167 35.5208 30.4167H50.6875C52.875 30.4167 54.5399 31.3038 55.6823 33.0781C56.8247 34.8525 56.9583 36.7361 56.0833 38.7292L51.2708 49.375H59.5833C61.1875 49.375 62.5608 49.9462 63.7031 51.0886C64.8455 52.2309 65.4167 53.6042 65.4167 55.2084V71.25H59.5833ZM56.6667 28.9584C55.0625 28.9584 53.6892 28.3872 52.5469 27.2448C51.4045 26.1025 50.8333 24.7292 50.8333 23.125C50.8333 21.5209 51.4045 20.1476 52.5469 19.0052C53.6892 17.8629 55.0625 17.2917 56.6667 17.2917C58.2708 17.2917 59.6441 17.8629 60.7865 19.0052C61.9288 20.1476 62.5 21.5209 62.5 23.125C62.5 24.7292 61.9288 26.1025 60.7865 27.2448C59.6441 28.3872 58.2708 28.9584 56.6667 28.9584Z" fill="#00853E"/>
</svg>
