<svg width="90" height="90" viewBox="0 0 90 90" fill="none" xmlns="http://www.w3.org/2000/svg">
<circle cx="45" cy="45" r="45" fill="#D9D9D9"/>
<path d="M40.9167 56.6667C40.9167 52.7292 41.2691 49.8976 41.9739 48.1719C42.6788 46.4462 44.1736 44.5625 46.4583 42.5208C48.4514 40.7708 49.9705 39.2517 51.0156 37.9635C52.0608 36.6753 52.5833 35.2049 52.5833 33.5521C52.5833 31.559 51.9149 29.9063 50.5781 28.5938C49.2413 27.2813 47.3819 26.625 45 26.625C42.5208 26.625 40.6371 27.3785 39.3489 28.8854C38.0608 30.3924 37.1493 31.9236 36.6146 33.4792L29.1042 30.2708C30.125 27.1597 31.9965 24.4618 34.7187 22.1771C37.441 19.8924 40.868 18.75 45 18.75C50.1042 18.75 54.0295 20.1719 56.776 23.0156C59.5226 25.8594 60.8958 29.2743 60.8958 33.2604C60.8958 35.691 60.3733 37.7691 59.3281 39.4948C58.283 41.2205 56.6424 43.1771 54.4062 45.3646C52.0243 47.6493 50.5781 49.3872 50.0677 50.5781C49.5573 51.7691 49.3021 53.7986 49.3021 56.6667H40.9167ZM45 74.1667C43.3958 74.1667 42.0226 73.5955 40.8802 72.4531C39.7378 71.3108 39.1667 69.9375 39.1667 68.3333C39.1667 66.7292 39.7378 65.3559 40.8802 64.2135C42.0226 63.0712 43.3958 62.5 45 62.5C46.6042 62.5 47.9774 63.0712 49.1198 64.2135C50.2621 65.3559 50.8333 66.7292 50.8333 68.3333C50.8333 69.9375 50.2621 71.3108 49.1198 72.4531C47.9774 73.5955 46.6042 74.1667 45 74.1667Z" fill="#00853E"/>
</svg>
