<svg width="90" height="90" viewBox="0 0 90 90" fill="none" xmlns="http://www.w3.org/2000/svg">
<circle cx="45" cy="45" r="45" fill="#D9D9D9"/>
<path d="M54 71.5L36.5 65.375L22.9375 70.625C21.9653 71.0139 21.066 70.9045 20.2396 70.2969C19.4132 69.6892 19 68.875 19 67.8542V27.0208C19 26.3889 19.1823 25.8299 19.5469 25.3437C19.9115 24.8576 20.4097 24.4931 21.0417 24.25L36.5 19L54 25.125L67.5625 19.875C68.5347 19.4861 69.434 19.5955 70.2604 20.2031C71.0868 20.8108 71.5 21.625 71.5 22.6458V63.4792C71.5 64.1111 71.3177 64.6701 70.9531 65.1562C70.5885 65.6424 70.0903 66.0069 69.4583 66.25L54 71.5ZM51.0833 64.3542V30.2292L39.4167 26.1458V60.2708L51.0833 64.3542ZM56.9167 64.3542L65.6667 61.4375V26.875L56.9167 30.2292V64.3542ZM24.8333 63.625L33.5833 60.2708V26.1458L24.8333 29.0625V63.625Z" fill="#00853E"/>
</svg>
