<svg width="90" height="90" viewBox="0 0 90 90" fill="none" xmlns="http://www.w3.org/2000/svg">
<circle cx="45" cy="45" r="45" fill="#D9D9D9"/>
<path d="M45 45C41.7917 45 39.0452 43.8577 36.7604 41.5729C34.4757 39.2882 33.3334 36.5417 33.3334 33.3334C33.3334 30.125 34.4757 27.3785 36.7604 25.0938C39.0452 22.809 41.7917 21.6667 45 21.6667C48.2084 21.6667 50.9549 22.809 53.2396 25.0938C55.5243 27.3785 56.6667 30.125 56.6667 33.3334C56.6667 36.5417 55.5243 39.2882 53.2396 41.5729C50.9549 43.8577 48.2084 45 45 45ZM21.6667 68.3334V60.1667C21.6667 58.5139 22.092 56.9948 22.9427 55.6094C23.7934 54.224 24.9236 53.1667 26.3334 52.4375C29.3472 50.9306 32.4097 49.8004 35.5209 49.0469C38.632 48.2934 41.7917 47.9167 45 47.9167C48.2084 47.9167 51.3681 48.2934 54.4792 49.0469C57.5903 49.8004 60.6528 50.9306 63.6667 52.4375C65.0764 53.1667 66.2066 54.224 67.0573 55.6094C67.908 56.9948 68.3334 58.5139 68.3334 60.1667V68.3334H21.6667ZM27.5 62.5H62.5V60.1667C62.5 59.632 62.3663 59.1459 62.099 58.7084C61.8316 58.2709 61.4792 57.9306 61.0417 57.6875C58.4167 56.375 55.7674 55.3906 53.0938 54.7344C50.4202 54.0781 47.7222 53.75 45 53.75C42.2778 53.75 39.5799 54.0781 36.9063 54.7344C34.2327 55.3906 31.5834 56.375 28.9584 57.6875C28.5209 57.9306 28.1684 58.2709 27.9011 58.7084C27.6337 59.1459 27.5 59.632 27.5 60.1667V62.5ZM45 39.1667C46.6042 39.1667 47.9775 38.5955 49.1198 37.4531C50.2622 36.3108 50.8334 34.9375 50.8334 33.3334C50.8334 31.7292 50.2622 30.3559 49.1198 29.2136C47.9775 28.0712 46.6042 27.5 45 27.5C43.3959 27.5 42.0226 28.0712 40.8802 29.2136C39.7379 30.3559 39.1667 31.7292 39.1667 33.3334C39.1667 34.9375 39.7379 36.3108 40.8802 37.4531C42.0226 38.5955 43.3959 39.1667 45 39.1667Z" fill="#00853E"/>
</svg>
