<svg width="90" height="90" viewBox="0 0 90 90" fill="none" xmlns="http://www.w3.org/2000/svg">
<circle cx="45" cy="45" r="45" fill="#D9D9D9"/>
<path d="M16 67.6667V59.5C16 57.8958 16.4132 56.3889 17.2396 54.9792C18.066 53.5694 19.2083 52.5 20.6667 51.7708C23.1458 50.5069 25.941 49.4375 29.0521 48.5625C32.1632 47.6875 35.5903 47.25 39.3333 47.25C40.7917 47.25 42.2135 47.3229 43.599 47.4687C44.9844 47.6146 46.3333 47.8333 47.6458 48.125L42.5417 53.2292C42.0069 53.1319 41.4844 53.0833 40.974 53.0833H39.3333C35.8819 53.0833 32.783 53.4965 30.0365 54.3229C27.2899 55.1493 25.0417 56.0486 23.2917 57.0208C22.8542 57.2639 22.5017 57.6042 22.2344 58.0417C21.967 58.4792 21.8333 58.9653 21.8333 59.5V61.8333H40.0625L45.8958 67.6667H16ZM55.5208 68.8333L45.4583 58.7708L49.5417 54.6875L55.5208 60.6667L70.25 45.9375L74.3333 50.0208L55.5208 68.8333ZM39.3333 44.3333C36.125 44.3333 33.3785 43.191 31.0937 40.9062C28.809 38.6215 27.6667 35.875 27.6667 32.6667C27.6667 29.4583 28.809 26.7118 31.0937 24.4271C33.3785 22.1424 36.125 21 39.3333 21C42.5417 21 45.2882 22.1424 47.5729 24.4271C49.8576 26.7118 51 29.4583 51 32.6667C51 35.875 49.8576 38.6215 47.5729 40.9062C45.2882 43.191 42.5417 44.3333 39.3333 44.3333ZM39.3333 38.5C40.9375 38.5 42.3108 37.9288 43.4531 36.7865C44.5955 35.6441 45.1667 34.2708 45.1667 32.6667C45.1667 31.0625 44.5955 29.6892 43.4531 28.5469C42.3108 27.4045 40.9375 26.8333 39.3333 26.8333C37.7292 26.8333 36.3559 27.4045 35.2135 28.5469C34.0712 29.6892 33.5 31.0625 33.5 32.6667C33.5 34.2708 34.0712 35.6441 35.2135 36.7865C36.3559 37.9288 37.7292 38.5 39.3333 38.5Z" fill="#00853E"/>
</svg>
