<svg width="96" height="90" viewBox="0 0 96 90" fill="none" xmlns="http://www.w3.org/2000/svg">
<circle cx="51" cy="45" r="45" fill="#D9D9D9"/>
<g clip-path="url(#clip0_73_77)">
<path fill-rule="evenodd" clip-rule="evenodd" d="M27.4636 55.6094C31.3281 61.3212 37.1736 67.5069 45 74.1667C52.8264 67.5069 58.6719 61.3212 62.5365 55.6094C66.4011 49.8976 68.3334 44.6111 68.3334 39.75V39.1667H62.5V39.75C62.5 43.2014 61.066 47.151 58.1979 51.599C55.3299 56.0469 50.9306 60.9931 45 66.4375C39.0695 60.9931 34.6702 56.0469 31.8021 51.599C28.934 47.151 27.5 43.2014 27.5 39.75C27.5 34.4514 29.1893 30.1128 32.5677 26.7344C35.9462 23.3559 40.0903 21.6667 45 21.6667C45.5347 21.6667 46.033 21.6788 46.4948 21.7031C46.9566 21.7274 47.4306 21.7882 47.9167 21.8854V15.9792C47.4306 15.8819 46.9445 15.8333 46.4584 15.8333H45C38.8264 15.8333 33.3941 17.9965 28.7031 22.3229C24.0122 26.6493 21.6667 32.4583 21.6667 39.75C21.6667 44.6111 23.599 49.8976 27.4636 55.6094ZM68.3334 33.3333H62.5V24.5833H53.75V18.75H62.5V10H68.3334V18.75H77.0834V24.5833H68.3334V33.3333Z" fill="#00853E"/>
</g>
<path d="M40.2857 55.2857C38.5071 55.2857 36.991 54.6589 35.7375 53.4054C34.4839 52.1518 33.8571 50.6357 33.8571 48.8572C33.8571 47.0786 34.4839 45.5625 35.7375 44.3089C36.991 43.0554 38.5071 42.4286 40.2857 42.4286V45C39.2143 45 38.3035 45.375 37.5535 46.125C36.8035 46.875 36.4285 47.7857 36.4285 48.8572C36.4285 49.9286 36.8035 50.8393 37.5535 51.5893C38.3035 52.3393 39.2143 52.7143 40.2857 52.7143C41.3571 52.7143 42.2678 52.3393 43.0178 51.5893C43.7678 50.8393 44.1428 49.9286 44.1428 48.8572H46.7143C46.7143 50.6357 46.0875 52.1518 44.8339 53.4054C43.5803 54.6589 42.0643 55.2857 40.2857 55.2857ZM51.8571 54V47.5714H44.1428C43.2 47.5714 42.4714 47.1697 41.9571 46.3661C41.4428 45.5625 41.3785 44.7214 41.7643 43.8429L44.1428 38.5714H41.2178L40.4464 40.5643L37.9714 39.8572L38.8714 37.5429C39.0643 37.05 39.3803 36.6697 39.8196 36.4018C40.2589 36.1339 40.7357 36 41.25 36H47.9357C48.9 36 49.6339 36.3911 50.1375 37.1732C50.641 37.9554 50.7 38.7857 50.3143 39.6643L48.1928 44.3572H51.8571C52.5643 44.3572 53.1696 44.6089 53.6732 45.1125C54.1768 45.6161 54.4285 46.2214 54.4285 46.9286V54H51.8571ZM50.5714 35.3572C49.8643 35.3572 49.2589 35.1054 48.7553 34.6018C48.2518 34.0982 48 33.4929 48 32.7857C48 32.0786 48.2518 31.4732 48.7553 30.9697C49.2589 30.4661 49.8643 30.2143 50.5714 30.2143C51.2785 30.2143 51.8839 30.4661 52.3875 30.9697C52.891 31.4732 53.1428 32.0786 53.1428 32.7857C53.1428 33.4929 52.891 34.0982 52.3875 34.6018C51.8839 35.1054 51.2785 35.3572 50.5714 35.3572Z" fill="#00853E"/>
<defs>
<clipPath id="clip0_73_77">
<rect width="70" height="70" fill="white" transform="translate(10 10)"/>
</clipPath>
</defs>
</svg>
