<svg width="90" height="90" viewBox="0 0 90 90" fill="none" xmlns="http://www.w3.org/2000/svg">
<circle cx="45" cy="45" r="45" fill="#D9D9D9"/>
<path d="M27.5 65.4166V68.3333C27.5 69.1597 27.2205 69.8524 26.6615 70.4114C26.1024 70.9705 25.4097 71.25 24.5833 71.25H21.6667C20.8403 71.25 20.1476 70.9705 19.5885 70.4114C19.0295 69.8524 18.75 69.1597 18.75 68.3333V45L24.875 27.5C25.1667 26.625 25.6892 25.9201 26.4427 25.3854C27.1962 24.8507 28.0347 24.5833 28.9583 24.5833H61.0417C61.9653 24.5833 62.8038 24.8507 63.5573 25.3854C64.3108 25.9201 64.8333 26.625 65.125 27.5L71.25 45V68.3333C71.25 69.1597 70.9705 69.8524 70.4115 70.4114C69.8524 70.9705 69.1597 71.25 68.3333 71.25H65.4167C64.5903 71.25 63.8976 70.9705 63.3385 70.4114C62.7795 69.8524 62.5 69.1597 62.5 68.3333V65.4166H27.5ZM26.9167 39.1666H63.0833L60.0208 30.4166H29.9792L26.9167 39.1666ZM31.875 56.6666C33.0903 56.6666 34.1233 56.2413 34.974 55.3906C35.8247 54.5399 36.25 53.5069 36.25 52.2916C36.25 51.0764 35.8247 50.0434 34.974 49.1927C34.1233 48.342 33.0903 47.9166 31.875 47.9166C30.6597 47.9166 29.6267 48.342 28.776 49.1927C27.9253 50.0434 27.5 51.0764 27.5 52.2916C27.5 53.5069 27.9253 54.5399 28.776 55.3906C29.6267 56.2413 30.6597 56.6666 31.875 56.6666ZM58.125 56.6666C59.3403 56.6666 60.3733 56.2413 61.224 55.3906C62.0747 54.5399 62.5 53.5069 62.5 52.2916C62.5 51.0764 62.0747 50.0434 61.224 49.1927C60.3733 48.342 59.3403 47.9166 58.125 47.9166C56.9097 47.9166 55.8767 48.342 55.026 49.1927C54.1753 50.0434 53.75 51.0764 53.75 52.2916C53.75 53.5069 54.1753 54.5399 55.026 55.3906C55.8767 56.2413 56.9097 56.6666 58.125 56.6666ZM24.5833 59.5833H65.4167V45H24.5833V59.5833Z" fill="#00853E"/>
</svg>
